# xmcd
#
# Track frame offsets:
#	150
#	14062
#	32902
#	50719
#	68673
#	80709
#	94582
#	105993
#	122589
#	137583
#	147366
#
# Disc length: 2266 seconds
# Revision: 0
# Processed by: cddbd v1.5.2PL0 Copyright (c) Steve Scherf et al.
# Submitted via: dBpowerAMP V12.0
#
DISCID=9608d80b
DTITLE=Flying Burrito Bros - The Gilded Palace of Sin [Intervention IR-SCD3]
DYEAR=2017
DGENRE=Country Rock
TTITLE0=Christine's Tune
TTITLE1=Sin City
TTITLE2=Do Right Woman
TTITLE3=Dark End of the Street
TTITLE4=My Uncle
TTITLE5=Wheels
TTITLE6=Juanita
TTITLE7=Hot Burrito #1
TTITLE8=Hot Burrito #2
TTITLE9=Do You Know How It Feels
TTITLE10=Hippie Boy
EXTD=
EXTT0=
EXTT1=
EXTT2=
EXTT3=
EXTT4=
EXTT5=
EXTT6=
EXTT7=
EXTT8=
EXTT9=
EXTT10=
PLAYORDER=
